<svg xmlns="http://www.w3.org/2000/svg" width="199.868" height="106.178" viewBox="0 0 199.868 106.178">
  <g id="Group_75" data-name="Group 75" transform="translate(-73 -3030.39)">
    <path id="Path_69" data-name="Path 69" d="M151.382,3130.169a51.948,51.948,0,0,1-9.005,3.846l-2.964-9.166-.07-.231a42.524,42.524,0,0,0,7.142-3.035l.13.221.16.29Z" fill="#00b2e0"/>
    <path id="Path_70" data-name="Path 70" d="M137.721,3135.286a52.9,52.9,0,0,1-11.631,1.282c-.742,0-1.482-.02-2.213-.049l.28-9.686.009-.191c.643.041,1.284.05,1.924.05a43.871,43.871,0,0,0,9.316-1l.049.21Z" fill="#00b2e0"/>
    <path id="Path_71" data-name="Path 71" d="M124.166,3126.642l-.009.191-.28,9.686a52.951,52.951,0,0,1-18.823-4.278l4.028-8.894.049-.112A42.759,42.759,0,0,0,124.166,3126.642Z" fill="#8ed1ed"/>
    <path id="Path_72" data-name="Path 72" d="M96.921,3115.362l-.041.041-.26.3-6.229,7.07a53.353,53.353,0,0,1-5.11-5.328L92.734,3111l.02-.02A45.032,45.032,0,0,0,96.921,3115.362Z" fill="#00b2e0"/>
    <path id="Path_73" data-name="Path 73" d="M87.235,3102.4h-.01l-8.716,4.649a52.56,52.56,0,0,1-3.805-10.188l9.446-2.965c.18.741.391,1.483.61,2.2.02.06.041.129.061.19,0,.009.01.019.01.03s.009.02.009.03c.09.271.18.551.27.831.122.361.241.721.372,1.073.19.53.4,1.06.61,1.582s.431,1.041.662,1.553C86.914,3101.729,87.075,3102.06,87.235,3102.4Z" fill="#8ed1ed"/>
    <path id="Path_74" data-name="Path 74" d="M83.508,3090.812l-9.635,2.244a52.965,52.965,0,0,1-.873-9.577c0-.561.01-1.112.032-1.673l9.9-.11c-.029.59-.039,1.182-.039,1.783A43.179,43.179,0,0,0,83.508,3090.812Z" fill="#00b2e0"/>
    <path id="Path_75" data-name="Path 75" d="M86.7,3065.7a42.91,42.91,0,0,0-3.776,16l-9.9.11a52.728,52.728,0,0,1,4.357-19.5Z" fill="#03638e"/>
    <path id="Path_76" data-name="Path 76" d="M111.375,3042.851a.032.032,0,0,1-.019.009,43.118,43.118,0,0,0-15.266,9.527l-.321-.3-.029-.031-6.883-6.43a53.044,53.044,0,0,1,18.952-12Z" fill="#8ed1ed"/>
    <path id="Path_77" data-name="Path 77" d="M124.137,3040.286v.04a42.76,42.76,0,0,0-8.144,1.142c-.521.121-1.041.261-1.562.4-.012,0-.021.011-.041.011-.42.12-.841.251-1.262.38-.211.07-.421.141-.632.2-.369.13-.751.26-1.121.391l-3.566-9.227a52.665,52.665,0,0,1,15.8-3.175Z" fill="#00b2e0"/>
    <path id="Path_78" data-name="Path 78" d="M137.429,3031.611l-2.023,9.6-.01.07a43.77,43.77,0,0,0-9.306-1c-.652,0-1.3.01-1.953.05v-.04l-.53-9.837c.82-.04,1.651-.059,2.483-.059A52.884,52.884,0,0,1,137.429,3031.611Z" fill="#03638e"/>
    <path id="Path_79" data-name="Path 79" d="M144.872,3033.806l-3.407,9.175-.039.1a.132.132,0,0,0-.06-.019,39.589,39.589,0,0,0-4.467-1.413l.019-.089,1.953-9.618A49.909,49.909,0,0,1,144.872,3033.806Z" fill="#00b2e0"/>
    <path id="Path_80" data-name="Path 80" d="M163.081,3045.415l-7.481,6.291-.131.109a42.982,42.982,0,0,0-8-5.889h-.01l.061-.111h.009l4.838-8.474A52.822,52.822,0,0,1,163.081,3045.415Z" fill="#03638e"/>
    <path id="Path_81" data-name="Path 81" d="M168.822,3051.985l-7.732,5.821-.16.121h-.01a43.371,43.371,0,0,0-5.451-6.112l.131-.109,7.481-6.291A52.675,52.675,0,0,1,168.822,3051.985Z" fill="#00b2e0"/>
    <path id="Path_82" data-name="Path 82" d="M103.262,3108.912l-6.36,6.511a43.547,43.547,0,0,0,8.473,6.1l4.447-7.932A34.306,34.306,0,0,1,103.262,3108.912Z" fill="#03638e"/>
    <path id="Path_83" data-name="Path 83" d="M92.754,3110.985l6.993-5.78a33.767,33.767,0,0,1-4.238-6.6l-8.274,3.8c-.16-.341-.17-.331-.01,0a43.553,43.553,0,0,0,5.509,8.6Z" fill="#8ed1ed"/>
    <path id="Path_84" data-name="Path 84" d="M160.939,3057.927h-.019a43.626,43.626,0,0,0-13.454-12l-4.447,7.793a34.709,34.709,0,0,0-4.829-2.253l3.176-8.4c-.361-.141-.73-.272-1.093-.4A42.744,42.744,0,0,1,160.939,3057.927Z" fill="#03638e"/>
    <path id="Path_85" data-name="Path 85" d="M102.44,3058.987a33.442,33.442,0,0,0-4.507,5.361l-7.462-5.22a43.372,43.372,0,0,1,5.638-6.691Z" fill="#00b2e0"/>
    <path id="Path_86" data-name="Path 86" d="M97.933,3064.348a34.01,34.01,0,0,0-2.665,4.677l-8.514-3.306a43.482,43.482,0,0,1,3.717-6.591Z" fill="#8ed1ed"/>
    <path id="Path_87" data-name="Path 87" d="M158.666,3112.288a41.391,41.391,0,0,1-5.21,4.968l-5.87-6.941a33.846,33.846,0,0,0,4.088-3.847Z" fill="#00b2e0"/>
    <path id="Path_88" data-name="Path 88" d="M153.456,3117.256a42.3,42.3,0,0,1-6.841,4.548l-4.338-7.994a33.336,33.336,0,0,0,5.309-3.5Z" fill="#03638e"/>
    <path id="Path_89" data-name="Path 89" d="M144.872,3033.806l-3.465,9.154-.041.1-3.175,8.4" fill="none"/>
    <path id="Path_90" data-name="Path 90" d="M152.364,3037.341l-4.838,8.475-.061.11-4.447,7.793" fill="none"/>
    <line id="Line_4" data-name="Line 4" x1="0.16" y1="0.29" transform="translate(146.615 3121.804)" fill="#00b2e0"/>
    <path id="Path_91" data-name="Path 91" d="M105.054,3122.094l.321-.571,4.447-7.933" fill="none"/>
    <path id="Path_92" data-name="Path 92" d="M96.62,3115.7l.282-.281,6.36-6.511" fill="none"/>
    <line id="Line_5" data-name="Line 5" x1="6.992" y2="5.78" transform="translate(92.754 3105.205)" fill="none"/>
    <line id="Line_6" data-name="Line 6" x1="8.274" y2="3.797" transform="translate(87.235 3098.604)" fill="none"/>
    <path id="Path_93" data-name="Path 93" d="M86.7,3065.7l.051.02,8.514,3.307" fill="none"/>
    <path id="Path_94" data-name="Path 94" d="M95.74,3052.056l.029.031.34.35" fill="none"/>
    <text id="esearch" transform="translate(137.868 3093.055)" fill="#fff" font-size="36.534" font-family="ArialMT, Arial" letter-spacing="0.02em"><tspan x="0" y="0">esearch</tspan></text>
    <text id="laboratory" transform="translate(187.683 3113.269)" fill="#fff" font-size="17.947" font-family="ArialMT, Arial" letter-spacing="0.02em"><tspan x="0" y="0">laboratory</tspan></text>
    <path id="Path_95" data-name="Path 95" d="M121.621,3078.069q-.744-2.016-1.49-4.033c-.081-.222,3.587-1.172,3.794-1.208,2.445-.429,5.347-.28,7.39,1.276a7.444,7.444,0,0,1,2.9,7.462,9.024,9.024,0,0,1-4.128,5.412c-.134.082-.773.564-.958.4l5.677,5.679h-7.663l-7.323-7.168c2.438-1.017,4.844-2.1,7.258-3.172a3.05,3.05,0,0,0,1.959-2.039,3.381,3.381,0,0,0-1.358-3.242c-1.36-.956-3.082-.536-4.528-.01A5.491,5.491,0,0,0,121.621,3078.069Z" fill="#f05a2a"/>
  </g>
</svg>
