<svg xmlns="http://www.w3.org/2000/svg" width="199.868" height="106.179" viewBox="0 0 199.868 106.179">
  <g id="Group_5" data-name="Group 5" transform="translate(-73 -57.574)">
    <path id="Path_1" data-name="Path 1" d="M151.382,157.353a51.875,51.875,0,0,1-9.005,3.846l-2.964-9.166-.07-.23a42.6,42.6,0,0,0,7.142-3.035l.13.22.16.29Z" fill="#00b2e0"/>
    <path id="Path_2" data-name="Path 2" d="M137.721,162.471a52.9,52.9,0,0,1-11.631,1.282c-.742,0-1.482-.02-2.213-.049l.28-9.686.009-.192c.643.041,1.284.051,1.924.051a43.877,43.877,0,0,0,9.316-1l.049.211Z" fill="#00b2e0"/>
    <path id="Path_3" data-name="Path 3" d="M124.166,153.826l-.009.192-.28,9.686a52.934,52.934,0,0,1-18.823-4.279l4.028-8.894.049-.111A42.751,42.751,0,0,0,124.166,153.826Z" fill="#8ed1ed"/>
    <path id="Path_4" data-name="Path 4" d="M96.921,142.547l-.041.041-.26.3-6.229,7.071a53.376,53.376,0,0,1-5.11-5.328l7.453-6.441.02-.02A45.134,45.134,0,0,0,96.921,142.547Z" fill="#00b2e0"/>
    <path id="Path_5" data-name="Path 5" d="M87.235,129.585h-.01l-8.716,4.649A52.556,52.556,0,0,1,74.7,124.046l9.446-2.964c.18.74.391,1.482.61,2.2.02.06.041.13.061.191,0,.009.01.019.01.03s.009.019.009.029c.09.271.18.552.27.831.122.361.241.722.372,1.073.19.531.4,1.061.61,1.582s.431,1.042.662,1.553C86.914,128.915,87.075,129.245,87.235,129.585Z" fill="#8ed1ed"/>
    <path id="Path_6" data-name="Path 6" d="M83.508,118l-9.635,2.243A52.956,52.956,0,0,1,73,110.664c0-.562.01-1.112.032-1.673l9.9-.111c-.029.591-.039,1.183-.039,1.784A43.189,43.189,0,0,0,83.508,118Z" fill="#00b2e0"/>
    <path id="Path_7" data-name="Path 7" d="M86.7,92.884a42.9,42.9,0,0,0-3.776,16l-9.9.111a52.733,52.733,0,0,1,4.357-19.5Z" fill="#03638e"/>
    <path id="Path_8" data-name="Path 8" d="M111.375,70.035a.031.031,0,0,1-.019.01A43.116,43.116,0,0,0,96.09,79.571l-.321-.3-.029-.03L88.857,72.81a53.042,53.042,0,0,1,18.952-12Z" fill="#8ed1ed"/>
    <path id="Path_9" data-name="Path 9" d="M124.137,67.471v.04a42.758,42.758,0,0,0-8.144,1.141c-.521.121-1.041.262-1.562.4-.012,0-.021.011-.041.011-.42.12-.841.25-1.262.38-.211.07-.421.141-.632.2-.369.129-.751.26-1.121.39l-3.566-9.226a52.636,52.636,0,0,1,15.8-3.175Z" fill="#00b2e0"/>
    <path id="Path_10" data-name="Path 10" d="M137.429,58.8l-2.023,9.6-.01.07a43.778,43.778,0,0,0-9.306-1c-.652,0-1.3.01-1.953.05v-.04l-.53-9.837c.82-.04,1.651-.06,2.483-.06A52.886,52.886,0,0,1,137.429,58.8Z" fill="#03638e"/>
    <path id="Path_11" data-name="Path 11" d="M144.872,60.99l-3.407,9.176-.039.1a.134.134,0,0,0-.06-.02,39.766,39.766,0,0,0-4.467-1.413l.019-.089,1.953-9.617A49.9,49.9,0,0,1,144.872,60.99Z" fill="#00b2e0"/>
    <path id="Path_12" data-name="Path 12" d="M163.081,72.6,155.6,78.891l-.131.109a42.936,42.936,0,0,0-8-5.89h-.01l.061-.109h.009l4.838-8.476A52.831,52.831,0,0,1,163.081,72.6Z" fill="#03638e"/>
    <path id="Path_13" data-name="Path 13" d="M168.822,79.17l-7.732,5.821-.16.12h-.01A43.367,43.367,0,0,0,155.469,79l.131-.109,7.481-6.291A52.61,52.61,0,0,1,168.822,79.17Z" fill="#00b2e0"/>
    <path id="Path_14" data-name="Path 14" d="M103.262,136.1l-6.36,6.51a43.6,43.6,0,0,0,8.473,6.1l4.447-7.934A34.3,34.3,0,0,1,103.262,136.1Z" fill="#03638e"/>
    <path id="Path_15" data-name="Path 15" d="M92.754,138.17l6.993-5.78a33.791,33.791,0,0,1-4.238-6.6l-8.274,3.8c-.16-.34-.17-.33-.01,0a43.574,43.574,0,0,0,5.509,8.6Z" fill="#8ed1ed"/>
    <path id="Path_16" data-name="Path 16" d="M160.939,85.111h-.019A43.367,43.367,0,0,0,155.469,79a42.936,42.936,0,0,0-8-5.89L143.019,80.9a34.735,34.735,0,0,0-4.829-2.253l3.176-8.4c-.361-.141-.73-.271-1.093-.4A42.735,42.735,0,0,1,160.939,85.111Z" fill="#03638e"/>
    <path id="Path_17" data-name="Path 17" d="M102.44,86.172a33.47,33.47,0,0,0-4.507,5.36l-7.462-5.22a43.413,43.413,0,0,1,5.638-6.691Z" fill="#00b2e0"/>
    <path id="Path_18" data-name="Path 18" d="M97.933,91.532a34,34,0,0,0-2.665,4.678L86.754,92.9a43.577,43.577,0,0,1,3.717-6.591Z" fill="#8ed1ed"/>
    <path id="Path_19" data-name="Path 19" d="M158.666,139.472a41.377,41.377,0,0,1-5.21,4.968l-5.87-6.941a33.856,33.856,0,0,0,4.088-3.846Z" fill="#00b2e0"/>
    <path id="Path_20" data-name="Path 20" d="M153.456,144.44a42.169,42.169,0,0,1-6.841,4.548l-4.338-7.993a33.342,33.342,0,0,0,5.309-3.5Z" fill="#03638e"/>
    <path id="Path_21" data-name="Path 21" d="M144.872,60.99l-3.465,9.155-.041.1-3.175,8.4" fill="none"/>
    <path id="Path_22" data-name="Path 22" d="M152.364,64.525,147.526,73l-.061.11L143.019,80.9" fill="none"/>
    <line id="Line_1" data-name="Line 1" x1="0.16" y1="0.29" transform="translate(146.615 148.988)" fill="#00b2e0"/>
    <path id="Path_23" data-name="Path 23" d="M105.054,149.278l.321-.571,4.447-7.933" fill="none"/>
    <path id="Path_24" data-name="Path 24" d="M96.62,142.888l.282-.281,6.36-6.511" fill="none"/>
    <line id="Line_2" data-name="Line 2" x1="6.992" y2="5.78" transform="translate(92.754 132.39)" fill="none"/>
    <line id="Line_3" data-name="Line 3" x1="8.274" y2="3.796" transform="translate(87.235 125.789)" fill="none"/>
    <path id="Path_25" data-name="Path 25" d="M86.7,92.884l.051.02,8.514,3.307" fill="none"/>
    <path id="Path_26" data-name="Path 26" d="M95.74,79.241l.029.03.34.35" fill="none"/>
    <text id="esearch" transform="translate(137.868 120.24)" fill="#03638e" font-size="36.534" font-family="ArialMT, Arial" letter-spacing="0.02em"><tspan x="0" y="0">esearch</tspan></text>
    <text id="laboratory" transform="translate(187.683 140.454)" fill="#03638e" font-size="17.947" font-family="ArialMT, Arial" letter-spacing="0.02em"><tspan x="0" y="0">laboratory</tspan></text>
    <path id="Path_27" data-name="Path 27" d="M121.621,105.253q-.744-2.016-1.49-4.032c-.081-.223,3.587-1.172,3.794-1.208,2.445-.429,5.347-.281,7.39,1.277a7.441,7.441,0,0,1,2.9,7.461,9.026,9.026,0,0,1-4.128,5.412c-.134.082-.773.564-.958.4l5.677,5.679h-7.663l-7.323-7.168c2.438-1.016,4.844-2.1,7.258-3.172a3.046,3.046,0,0,0,1.959-2.038,3.383,3.383,0,0,0-1.358-3.243c-1.36-.956-3.082-.535-4.528-.01A5.55,5.55,0,0,0,121.621,105.253Z" fill="#f05a2a"/>
  </g>
</svg>
